# xmcd
# 
# Track frame offsets:
#     150
#     2050
#     22762
#     27285
#     43757
#     48455
#     58175
#     63050
#     71635
#     76290
#     88582
#     91952
#     114560
#     115432
#     142215
#     146585
#     159032
#     163965
#     174322
#     178582
#     180570
#     184592
#     199182
#     203795
# 
# Disc length: 2945
# 
# Revision: 0
# Processed by: cddbd v1.5.2PL0 Copyright (c) Steve Scherf et al.
# Submitted via: BonkEnc v1.0.5
# 
DISCID=470b7f18
DTITLE=坂田 明 - 20人格
DYEAR=1981
DGENRE=Jazz
TTITLE0=発声練習
TTITLE1=新童謡パート１
TTITLE2=屋台のラーメン屋
TTITLE3=ホワイト・クリスマス
TTITLE4=トラック運転手
TTITLE5=詩とジャズの夕べ・於京城
TTITLE6=農業従事者
TTITLE7=TOKIO　ムギフミ
TTITLE8=元プロ野球選手
TTITLE9=新童謡パート2
TTITLE10=新任教師
TTITLE11=勧進帳
TTITLE12=ピアノ練習曲
TTITLE13=元総理と鍵盤の対話
TTITLE14=笑う人
TTITLE15=フォルクローレ
TTITLE16=コメディアン
TTITLE17=詩とジャズの夕べ・於北京
TTITLE18=季節労働者
TTITLE19=ネイマ
TTITLE20=建築業者
TTITLE21=電話
TTITLE22=バンドマン
TTITLE23=サンバ・デ・ドンバ
EXTD=YEAR: 1981
EXTT0=
EXTT1=
EXTT2=
EXTT3=
EXTT4=
EXTT5=
EXTT6=
EXTT7=
EXTT8=
EXTT9=
EXTT10=
EXTT11=
EXTT12=
EXTT13=
EXTT14=
EXTT15=
EXTT16=
EXTT17=
EXTT18=
EXTT19=
EXTT20=
EXTT21=
EXTT22=
EXTT23=
PLAYORDER=
